<?xml version="1.0" encoding="UTF-8" standalone="no"?>
<!-- Generator: Adobe Illustrator 15.1.0, SVG Export Plug-In . SVG Version: 6.00 Build 0)  -->

<svg
   xmlns:dc="http://purl.org/dc/elements/1.1/"
   xmlns:cc="http://creativecommons.org/ns#"
   xmlns:rdf="http://www.w3.org/1999/02/22-rdf-syntax-ns#"
   xmlns:svg="http://www.w3.org/2000/svg"
   xmlns="http://www.w3.org/2000/svg"
   xmlns:sodipodi="http://sodipodi.sourceforge.net/DTD/sodipodi-0.dtd"
   xmlns:inkscape="http://www.inkscape.org/namespaces/inkscape"
   version="1.1"
   id="Layer_1"
   x="0px"
   y="0px"
   width="55.973px"
   height="100px"
   viewBox="0 0 55.973 100"
   enable-background="new 0 0 55.973 100"
   xml:space="preserve"
   inkscape:version="0.48.2 r9819"
   sodipodi:docname="bulb.svg"><metadata
   id="metadata3055"><rdf:RDF><cc:Work
       rdf:about=""><dc:format>image/svg+xml</dc:format><dc:type
         rdf:resource="http://purl.org/dc/dcmitype/StillImage" /></cc:Work></rdf:RDF></metadata><defs
   id="defs3053" /><sodipodi:namedview
   pagecolor="#ffffff"
   bordercolor="#666666"
   borderopacity="1"
   objecttolerance="10"
   gridtolerance="10"
   guidetolerance="10"
   inkscape:pageopacity="1"
   inkscape:pageshadow="2"
   inkscape:window-width="1293"
   inkscape:window-height="770"
   id="namedview3051"
   showgrid="false"
   inkscape:zoom="4.8421053"
   inkscape:cx="11.963291"
   inkscape:cy="18.573271"
   inkscape:window-x="109"
   inkscape:window-y="3"
   inkscape:window-maximized="0"
   inkscape:current-layer="layer2" />





<g
   inkscape:groupmode="layer"
   id="layer2"
   inkscape:label="Mask"
   style="display:inline"><path
     style="opacity:1;fill:#ffffff;stroke:none;stroke-width:1.22473800000000010;stroke-miterlimit:4;stroke-opacity:1;stroke-dasharray:none;fill-opacity:1"
     d="M -1.4375 -1.25 L -1.4375 101.875 L 58.03125 101.875 L 58.03125 -1.25 L -1.4375 -1.25 z M 28 0 C 43.456 -2.3684758e-15 55.96975 12.544 55.96875 28 C 55.96875 33.089 54.552 37.81675 52.25 41.96875 C 45.377 54.34975 43.5585 61.30225 42.4375 68.03125 C 41.4965 73.67025 40.2005 74.96875 35.9375 74.96875 L 28 74.96875 L 20.0625 74.96875 C 15.8015 74.96875 14.47225 73.67225 13.53125 68.03125 C 12.41025 61.30225 10.59175 54.35075 3.71875 41.96875 C 1.41775 37.81575 0 33.089 0 28 C -2.3684758e-15 12.544 12.545 0 28 0 z "
     id="rect3862" /></g><g
   inkscape:groupmode="layer"
   id="layer3"
   inkscape:label="Background"
   style="display:inline"
   sodipodi:insensitive="true"><path
     d="M 27.986,0 C 12.531,0 0,12.53 0,27.986 c 0,5.089 1.43,9.82 3.731,13.973 6.873,12.382 8.693,19.335 9.814,26.064 0.941,5.641 2.243,6.951 6.504,6.951 1.812,0 4.779,0 7.937,0 3.158,0 6.125,0 7.936,0 4.263,0 5.564,-1.312 6.505,-6.951 1.121,-6.729 2.942,-13.683 9.815,-26.064 2.302,-4.152 3.73,-8.884 3.73,-13.973 C 55.973,12.53 43.442,0 27.986,0 z"
     id="path3041"
     style="opacity:0.75;fill:none;stroke:#000000;stroke-width:0.5;stroke-miterlimit:4;stroke-opacity:1;stroke-dasharray:none"
     inkscape:connector-curvature="0" /><path
     d="m 37.986,77 h -20 c -0.828,0 -1.5,0.671 -1.5,1.5 v 1 c 0,0.829 0.672,1.5 1.5,1.5 h 20 c 0.828,0 1.5,-0.671 1.5,-1.5 v -1 c 0,-0.829 -0.672,-1.5 -1.5,-1.5 z"
     id="path3043"
     inkscape:connector-curvature="0" /><path
     d="m 37.986,83 h -20 c -0.828,0 -1.5,0.671 -1.5,1.5 v 1 c 0,0.829 0.672,1.5 1.5,1.5 h 20 c 0.828,0 1.5,-0.671 1.5,-1.5 v -1 c 0,-0.829 -0.672,-1.5 -1.5,-1.5 z"
     id="path3045"
     inkscape:connector-curvature="0" /><path
     d="m 37.986,89 h -20 c -0.828,0 -1.5,0.671 -1.5,1.5 v 1 c 0,0.829 0.672,1.5 1.5,1.5 h 20 c 0.828,0 1.5,-0.671 1.5,-1.5 v -1 c 0,-0.829 -0.672,-1.5 -1.5,-1.5 z"
     id="path3047"
     inkscape:connector-curvature="0" /><path
     d="m 20.486,95 h 15 c 0,3 -4,5 -7.5,5 -3.5,0 -7.5,-2 -7.5,-5 z"
     id="path3049"
     inkscape:connector-curvature="0" /></g></svg>